HIERARCHY
ROOT hip
{
	OFFSET	0.00  0.00  0.00 
	CHANNELS 6 Xposition Yposition Zposition Xrotation Zrotation Yrotation
	JOINT abdomen
	{
		OFFSET	0.000000 0.000000 0.000000
		CHANNELS 3 Xrotation Zrotation Yrotation
		JOINT chest
		{
			OFFSET	0.000000 5.018152 -1.882228
			CHANNELS 3 Xrotation Zrotation Yrotation
			JOINT neckDummy
			{
				OFFSET	0.000000 8.316447 0.784897
				CHANNELS 3 Xrotation Yrotation Zrotation
				JOINT neck
				{
					OFFSET	0.000000 2.280413 -0.392801
					CHANNELS 3 Xrotation Zrotation Yrotation
					JOINT head
					{
						OFFSET	0.000000 3.496879 0.529469
						CHANNELS 3 Xrotation Zrotation Yrotation
						JOINT figureHair
						{
							OFFSET	0.000000 4.699570 0.720622
							CHANNELS 3 Zrotation Yrotation Xrotation
							End Site
							{
								OFFSET 0.000000 -6.419331 0.000000
							}
						}
					}
				}
			}
			JOINT lCollar
			{
				OFFSET	0.599237 8.316447 0.784897
				CHANNELS 3 Yrotation Zrotation Xrotation
				JOINT lShldr
				{
					OFFSET	6.421198 0.010146 -0.332128
					CHANNELS 3 Zrotation Yrotation Xrotation
					JOINT lForeArm
					{
						OFFSET	10.552783 0.025574 0.125508
						CHANNELS 3 Yrotation Zrotation Xrotation
						JOINT lHand
						{
							OFFSET	11.035963 0.319619 0.041520
							CHANNELS 3 Zrotation Yrotation Xrotation
							End Site
							{
								OFFSET 10.353753 0.000000 0.000000
							}
						}
					}
				}
			}
			JOINT rCollar
			{
				OFFSET	-0.599237 8.316447 0.784897
				CHANNELS 3 Yrotation Zrotation Xrotation
				JOINT rShldr
				{
					OFFSET	-6.421198 0.010146 -0.332128
					CHANNELS 3 Zrotation Yrotation Xrotation
					JOINT rForeArm
					{
						OFFSET	-10.552783 0.025574 0.125508
						CHANNELS 3 Yrotation Zrotation Xrotation
						JOINT rHand
						{
							OFFSET	-11.035963 0.319619 0.041520
							CHANNELS 3 Zrotation Yrotation Xrotation
							End Site
							{
								OFFSET -10.353753 0.000000 0.000000
							}
						}
					}
				}
			}
		}
	}
	JOINT lThigh
	{
		OFFSET	4.500466 -6.400484 -1.832696
		CHANNELS 3 Xrotation Zrotation Yrotation
		JOINT lShin
		{
			OFFSET	-1.359117 -18.918689 1.179887
			CHANNELS 3 Xrotation Zrotation Yrotation
			JOINT lFoot
			{
				OFFSET	-0.652380 -17.215186 -0.312137
				CHANNELS 3 Xrotation Yrotation Zrotation
				End Site
				{
					OFFSET 0.000000 0.000000 10.353752
				}
			}
		}
	}
	JOINT rThigh
	{
		OFFSET	-4.500466 -6.400484 -1.832696
		CHANNELS 3 Xrotation Zrotation Yrotation
		JOINT rShin
		{
			OFFSET	1.359117 -18.918689 1.179887
			CHANNELS 3 Xrotation Zrotation Yrotation
			JOINT rFoot
			{
				OFFSET	0.652380 -17.215186 -0.312137
				CHANNELS 3 Xrotation Yrotation Zrotation
				End Site
				{
					OFFSET 0.000000 0.000000 10.353752
				}
			}
		}
	}
}
MOTION
Frames:     15
Frame Time: 0.066667
0.000000 42.014908 0.240040 0.000000 0.000000 0.000000 0.000000 0.000000 0.000000 0.000000 0.000000 0.000000 0.000000 0.000000 0.000000 0.000000 0.000000 0.000000 0.000000 0.000000 0.000000 0.000000 0.000000 0.000000 2.021920 -5.690310 -0.063351 -70.100700 9.978770 15.991600 -22.515600 -9.303740 0.147736 5.969490 -0.173112 0.175734 -2.021920 5.690310 -0.063351 70.100700 -9.978770 15.991600 22.515600 9.303740 0.147736 -5.969490 0.173112 0.175734 -7.540794 3.901898 0.146016 15.771407 -3.260384 -0.932038 -8.535044 1.087320 -0.817477 -7.531943 -4.331991 0.100592 15.722377 3.212991 0.591963 -8.588552 -1.573671 0.965935 
0.081247 42.115295 0.242059 0.000000 0.000000 0.000000 -0.119394 0.817901 0.245967 -0.115683 -0.324259 -0.050368 0.000000 0.000000 0.000000 0.000000 -0.121476 0.000000 -1.331539 1.509679 0.000000 0.000000 0.000000 0.000000 1.859922 -4.827669 -0.062156 -61.851765 7.742213 16.700710 -30.241890 -17.405399 -0.554895 5.969490 -0.173112 0.175734 -2.021593 5.691086 -0.063288 70.100700 -9.978770 15.991600 22.515600 9.303740 0.147736 -5.969490 0.173112 0.175734 -7.514778 3.717762 0.136036 15.763776 -3.248713 -0.930560 -8.569989 1.121982 -0.638693 -7.342952 -4.579600 -1.735003 15.508151 2.506706 0.572975 -8.553020 -1.312160 1.650089 
0.166120 42.233025 0.243343 0.000000 0.000000 0.000000 -0.268819 1.781317 0.531795 -0.261191 -0.732083 -0.113721 0.000000 0.000000 0.000000 0.000000 -0.418857 0.000000 -2.973933 3.339195 0.000000 0.000000 0.000000 0.000000 1.657224 -3.748296 -0.060661 -51.664509 5.097780 17.538290 -39.650959 -27.254332 -1.493686 5.969490 -0.173112 0.175734 -2.020858 5.692827 -0.063145 70.100700 -9.978770 15.991600 22.515600 9.303740 0.147736 -5.969490 0.173112 0.175734 -6.560607 3.543320 0.127092 13.728602 -3.144296 -0.754033 -7.487778 1.104636 -0.611444 -6.679704 -4.941651 -3.822882 14.302973 1.711079 0.512146 -8.123722 -2.872140 2.442899 
0.303955 42.367546 0.249066 0.000000 0.000000 0.000000 -0.402631 2.865522 0.868701 -0.388798 -1.089860 -0.169280 0.000000 0.000000 0.000000 0.000000 -0.885523 0.000000 -4.533219 5.197822 0.000000 0.000000 0.000000 0.000000 1.475542 -2.780831 -0.059321 -42.036823 2.157308 18.472973 -49.040997 -37.148987 -2.114417 5.969491 -0.173112 0.175734 -2.019834 5.695255 -0.062947 70.100708 -9.978770 15.991600 22.515600 9.303740 0.147737 -5.969491 0.173112 0.175734 -5.286886 3.217349 0.088993 11.089743 -2.999102 -0.510584 -6.123518 1.097385 -0.478416 -5.542576 -5.698880 -5.944026 11.912685 1.074797 0.398240 -7.040739 -6.191051 3.389287 
0.574038 42.532246 0.266629 0.000000 0.000000 0.000000 -0.474860 4.151626 1.306732 -0.449150 -1.259472 -0.195560 0.000000 0.000000 0.000000 0.000000 -1.463609 0.000000 -5.654981 6.898196 0.000000 0.000000 0.000000 0.000000 1.376953 -2.255844 -0.058593 -35.243343 -1.239871 19.561312 -57.158375 -45.888885 -1.753874 5.969491 -0.173112 0.175734 -2.018776 5.697765 -0.062742 70.100723 -9.978771 15.991601 22.515600 9.303741 0.147737 -5.969491 0.173112 0.175734 -3.798451 2.666078 0.017760 8.003036 -2.810635 -0.234144 -4.544933 1.107861 -0.180719 -4.138232 -6.832207 -8.132446 8.983565 0.699784 0.304733 -5.603073 -10.486808 4.349979 
1.010768 42.716408 0.299735 0.000000 0.000000 0.000000 -0.452882 5.569057 1.834574 -0.408776 -1.147193 -0.177986 0.000000 0.000000 0.000000 0.000000 -2.095247 0.000000 -6.065057 8.110433 0.000000 0.000000 0.000000 0.000000 1.405287 -2.406724 -0.058802 -32.916306 -5.176998 20.833508 -63.067383 -52.569981 0.044496 5.969491 -0.173112 0.175734 -2.017939 5.699749 -0.062580 70.100716 -9.978770 15.991598 22.515596 9.303740 0.147737 -5.969491 0.173112 0.175734 -1.563547 1.815153 -0.152386 3.396003 -2.496703 0.145215 -0.973833 1.120331 0.312118 -1.815089 -8.231627 -10.441592 4.151977 0.792279 0.152190 -1.954322 -14.875054 5.438477 
1.468988 42.812962 0.337291 0.000000 0.000000 0.000000 -0.357457 6.440506 2.195456 -0.297734 -0.836870 -0.129644 0.000000 0.000000 0.000000 0.000000 -2.722572 0.000000 -5.810286 7.934528 0.000000 0.000000 0.000000 0.000000 1.526645 -3.052957 -0.059698 -33.935219 -9.426698 22.213638 -67.218384 -57.586582 2.864477 5.969491 -0.173112 0.175734 -2.017579 5.700602 -0.062510 70.100716 -9.978771 15.991599 22.515598 9.303741 0.147737 -5.969491 0.173112 0.175734 -0.321689 1.004001 -0.319274 0.890793 -2.313833 0.341465 0.629167 1.169667 0.930962 -0.295705 -9.661489 -12.684200 1.044842 0.969272 0.060155 0.220622 -18.787840 6.150977 
1.758649 42.690739 0.364504 0.000000 0.000000 0.000000 -0.222690 5.936983 2.071249 -0.161964 -0.456739 -0.070533 0.000000 0.000000 0.000000 0.000000 -3.287716 0.000000 -5.017763 5.327956 0.000000 0.000000 0.000000 0.000000 1.694965 -3.949268 -0.060939 -36.754757 -13.706265 23.606989 -70.267242 -61.523499 6.150694 5.969491 -0.173112 0.175734 -2.017953 5.699717 -0.062583 70.100708 -9.978771 15.991600 22.515598 9.303741 0.147737 -5.969491 0.173112 0.175734 -1.311668 0.597284 -0.326457 3.064596 -2.478032 0.165185 -0.940627 1.308342 1.495043 -0.840549 -10.834310 -14.559958 2.148209 0.524096 0.218469 -0.940766 -21.582106 6.159575 
1.689706 42.218578 0.366582 0.000000 0.000000 0.000000 -0.082689 3.229496 1.143822 -0.047406 -0.135037 -0.020652 0.000000 0.000000 0.000000 0.000000 -3.732815 0.000000 -3.814582 -0.751814 0.000000 0.000000 0.000000 0.000000 1.872558 -4.894956 -0.062249 -40.156189 -17.731812 24.919102 -72.662491 -64.760941 9.428355 5.969491 -0.173112 0.175734 -2.019314 5.696488 -0.062846 70.100700 -9.978769 15.991600 22.515600 9.303740 0.147737 -5.969491 0.173112 0.175734 -6.159933 0.987172 -0.019280 13.305639 -3.109086 -0.722862 -7.515359 1.516717 1.847500 -5.520981 -11.428640 -15.632126 11.458942 -2.049512 0.569338 -8.389883 -22.728621 5.352169 
1.290810 41.497574 0.344002 0.000000 0.000000 0.000000 0.000000 0.000000 0.000000 0.000000 0.000000 0.000000 0.000000 0.000000 0.000000 0.000000 -4.000000 0.000000 -2.636822 -7.000000 0.000000 0.000000 0.000000 0.000000 2.021920 -5.690310 -0.063351 -43.100700 -21.021229 25.991600 -74.515602 -67.303741 12.147736 5.969490 -0.173112 0.175734 -2.021920 5.690310 -0.063351 70.100700 -9.978770 15.991600 22.515600 9.303740 0.147736 -5.969490 0.173112 0.175734 -10.416157 1.864936 0.215229 22.184584 -3.497668 -1.544868 -12.093023 1.526007 1.616623 -10.191601 -11.128844 -16.302013 20.557598 -5.066008 0.378990 -16.049288 -21.501921 3.458342 
1.281414 40.984585 0.343261 0.000000 0.000000 0.000000 0.000003 -0.000557 -0.000837 -0.001978 -0.001389 -0.000839 0.000000 0.000000 0.000000 0.000000 -4.211920 0.000000 -1.757881 -7.211921 0.000000 0.000000 0.000000 0.000000 2.021920 -5.690310 -0.063351 -43.100700 -21.003046 25.991600 -74.515602 -67.303741 12.147735 5.969490 -0.173112 0.175734 -2.026337 5.679838 -0.064207 70.100700 -9.978771 15.991600 22.515600 9.303738 0.147735 -5.969490 0.173112 0.175734 -13.445501 2.065531 0.343819 28.583525 -3.709649 -2.176615 -15.438010 1.588901 1.875267 -13.328298 -11.262694 -15.802251 26.769478 -6.745233 0.007287 -24.604935 -19.204531 -0.835474 
1.272019 40.988087 0.342520 0.000000 0.000000 0.000000 0.000007 -0.001114 -0.001674 -0.003957 -0.002778 -0.001679 0.000000 0.000000 0.000000 0.000000 -4.423841 0.000000 -0.878941 -7.423841 0.000000 0.000000 0.000000 0.000000 2.021920 -5.690310 -0.063351 -43.100700 -20.984863 25.991600 -74.515602 -67.303741 12.147734 5.969490 -0.173112 0.175734 -2.030754 5.669366 -0.065062 70.100700 -9.978772 15.991600 22.515600 9.303736 0.147733 -5.969490 0.173112 0.175734 -13.423468 2.080648 0.341706 28.533720 -3.717327 -2.165076 -15.408968 1.584780 1.864529 -13.316523 -11.235368 -15.774199 26.748169 -6.750048 0.006497 -30.462381 -16.645790 -6.201667 
1.262624 40.991589 0.341778 0.000000 0.000000 0.000000 0.000010 -0.001672 -0.002510 -0.005935 -0.004166 -0.002518 0.000000 0.000000 0.000000 0.000000 -4.635761 0.000000 0.000000 -7.635762 0.000000 0.000000 0.000000 0.000000 2.021920 -5.690310 -0.063351 -43.100700 -20.966681 25.991600 -74.515602 -67.303741 12.147733 5.969490 -0.173112 0.175734 -2.035172 5.658895 -0.065918 70.100700 -9.978773 15.991600 22.515600 9.303734 0.147732 -5.969490 0.173112 0.175734 -13.411243 2.095909 0.340128 28.504539 -3.711372 -2.171221 -15.398178 1.594381 1.855971 -13.311293 -11.216500 -15.735383 26.730404 -6.739784 0.009361 -36.418743 -14.204390 -11.714684 
1.253229 40.995090 0.341037 0.000000 0.000000 0.000000 0.000013 -0.002229 -0.003347 -0.007913 -0.005555 -0.003358 0.000000 0.000000 0.000000 0.000000 -4.508609 0.000000 -0.527364 -7.985431 -0.222517 0.000000 0.000000 0.000000 2.021920 -5.690310 -0.063351 -43.100700 -20.948498 25.991600 -74.515602 -67.303741 12.147732 5.969490 -0.173112 0.175734 -2.039589 5.648423 -0.066774 70.100700 -9.978774 15.991600 22.515600 9.303732 0.147730 -5.969490 0.173112 0.175734 -13.398941 2.111536 0.338524 28.474604 -3.714679 -2.169821 -15.369056 1.591084 1.835543 -13.305989 -11.196417 -15.708221 26.711914 -6.732601 0.011473 -24.055471 -16.836861 1.496061 
1.243834 40.998592 0.340295 0.000000 0.000000 0.000000 0.000016 -0.002786 -0.004184 -0.009891 -0.006944 -0.004197 0.000000 0.000000 0.000000 0.000000 -4.381456 0.000000 -1.054729 -8.335099 -0.445033 0.000000 0.000000 0.000000 2.021920 -5.690310 -0.063351 -43.100700 -20.930315 25.991600 -74.515602 -67.303741 12.147731 5.969490 -0.173112 0.175734 -2.044006 5.637951 -0.067629 70.100700 -9.978775 15.991600 22.515600 9.303730 0.147729 -5.969490 0.173112 0.175734 -13.367119 2.125727 0.336318 28.406227 -3.709941 -2.163656 -15.340156 1.585573 1.814853 -13.284062 -11.167504 -15.670505 26.673391 -6.724799 0.014099 -12.227401 -20.116112 14.014559 
